<svg xmlns="http://www.w3.org/2000/svg" width="400mm" height="400mm" viewBox="0 0 1417.3228 1417.3228"><g transform="translate(0 364.96)"><flowRoot xml:space="preserve" style="line-height:125%" fill="#000" stroke="none" stroke-opacity="1" stroke-width="1" stroke-linejoin="miter" stroke-linecap="butt" fill-opacity="1" font-family="sans-serif" font-style="normal" font-weight="400" font-size="40" letter-spacing="0" word-spacing="0"><flowRegion><path d="M905.714 737.323h262.857v165.714H905.715z"/></flowRegion><flowPara/></flowRoot><path d="M488.57 540.934c-8.533 25.4-18.087 50.94-31.427 74.285-6.02 10.534-31.145 44.383-34.286 48.57-6.515 8.688-12.786 17.6-20 25.715C374.46 721.45 382.477 706 360 735.22l-11.43 17.142c-.95 2.857-1.306 5.99-2.856 8.572-4.88 8.132-6.36 2.584-8.57 11.428-.463 1.848 0 3.81 0 5.714 0 .953.425 2.006 0 2.858-4.81 9.62-2.83-8.78-5.715 11.428-.54 3.77.537 7.658 0 11.43-.427 2.98-1.906 5.713-2.86 8.57-.95 2.857-1.903 5.714-2.856 8.572-7.336 22.008-3.477 11.55-11.428 31.428-1.905 4.762-3.694 9.572-5.715 14.286-.837 1.957-2.182 3.694-2.856 5.714-.3.904.674 2.184 0 2.857-.673.673-1.904 0-2.857 0-.952 0-1.953.3-2.857 0-2.02-.674-3.757-2.02-5.714-2.858-6.93-2.97-19.092-7.013-25.715-11.428-3.193-2.13-8.317-8.32-11.427-11.43-.953-.95-1.737-2.11-2.857-2.856-3.8-2.534-19.395-8.37-20-8.572-6.578-2.192-13.382-3.646-20-5.714-8.624-2.695-17.027-6.09-25.715-8.57-25.106-7.175-3.58 2.566-31.427-8.573-12.28-4.913-11.43-1.73-11.43-8.572 0-.952-.552-2.082 0-2.857 7.73-10.818 34.737-39.463 40-45.714 6.996-8.306 13.086-17.342 20-25.714 11.186-13.54 24.98-25.108 34.287-40 5.252-8.403 42.348-97.946 45.714-105.714 4.576-10.56 9.524-20.952 14.286-31.43 9.524-22.856 18.817-45.81 28.57-68.57 4.535-10.577 10.19-20.675 14.287-31.43 3.54-9.29 5.577-19.088 8.572-28.57 2.72-8.616 5.875-17.09 8.57-25.714 2.068-6.618 2.87-13.678 5.714-20 8.615-19.144 33.41-59.357 42.857-77.143 24.976-47.01 23.636-46.975 42.86-91.428 9.48-21.923 17.888-44.35 28.57-65.714 10.302-20.603 23.185-39.816 34.286-60 9.854-17.917 18.978-36.227 28.57-54.286 6.598-12.418 13.713-24.565 20-37.143 6.78-13.56 6.348-19.04 11.43-34.286.673-2.02 2.183-3.694 2.857-5.715.3-.904-.426-2.006 0-2.858.602-1.204 2.05-1.78 2.857-2.857 2.06-2.747 4.01-5.59 5.714-8.57 2.113-3.7 3.523-7.778 5.715-11.43 3.532-5.89 8.17-11.096 11.427-17.143 3.44-6.386 5.532-13.414 8.572-20 2.676-5.8 5.713-11.428 8.57-17.143.13-.26 4.66-12.33 8.57-14.286.853-.426 1.906 0 2.86 0 16.19 0 32.402.85 48.57 0 5.785-.305 11.408-2.038 17.143-2.858 74.055-10.58 43.29-5.46 102.857-14.285 12.39-1.835 24.83-3.405 37.143-5.714 2.037-.38 10.093-4.192 11.428-2.857 4.392 4.39 5.384 21.308 5.716 22.856 1.645 7.68 2.918 15.52 5.714 22.858 4.854 12.742 10.52 25.222 17.143 37.142 7.698 13.857 18.432 25.922 25.714 40C909.927-28.257 913.865-13.177 920 .934c3.396 7.812 8.185 14.98 11.43 22.857 16.665 40.477 1.586 11.112 14.284 42.858 1.582 3.954 4.133 7.474 5.715 11.428.352.885-.427 2.006 0 2.858.6 1.204 1.903 1.904 2.856 2.857 1.904 3.81 4.22 7.44 5.714 11.43 1.38 3.676 1.905 7.618 2.857 11.428.953 3.81 2.035 7.59 2.857 11.428 2.035 9.497 2.175 19.527 5.715 28.572 8.37 21.39 33.975 58.802 45.713 77.143 6.694 10.46 14.6 20.247 20 31.43 7.996 16.564 12.576 34.6 20 51.428 6.877 15.587 15.683 30.262 22.857 45.714 5.214 11.23 9.48 22.875 14.286 34.286 8.806 20.915 15.095 33.856 22.857 57.143 1.536 4.608 1.765 9.555 2.857 14.286 1.766 7.653 3.498 15.323 5.714 22.858 2.55 8.668 5.715 17.142 8.572 25.714 1.905 5.714 4.862 11.18 5.714 17.143 1.078 7.543-.758 15.277 0 22.858.212 2.12 2.645 3.595 2.857 5.714 2.222 22.222-1.666 20 0 40 .48 5.773 1.905 11.43 2.857 17.143.953 8.57 2.32 17.107 2.857 25.714 0 62.186-1.095-18.202 2.86 37.142.54 7.6-.76 15.276 0 22.857.21 2.118 2.34 3.648 2.856 5.714 3.976 15.906 4.052 32.755 8.57 48.57 1.17 4.096 4.37 7.39 5.715 11.43.303.903-.3 1.953 0 2.857.675 2.02 2.342 3.65 2.86 5.715.922 3.696-1.705 8.02 0 11.43.424.85 2.43-.853 2.856 0 .85 1.702-.374 3.845 0 5.713.59 2.953 2.126 5.65 2.857 8.57 1.178 4.713 1.58 9.602 2.857 14.287 1.585 5.81 4.637 11.217 5.714 17.143.852 4.685-.59 9.56 0 14.286.374 2.988 2.43 5.59 2.857 8.57.54 3.772-.625 7.672 0 11.43.35 2.1 2.185 3.694 2.86 5.714.3.903 0 1.905 0 2.857 0 .952.424 2.005 0 2.857-.604 1.205-1.53 2.645-2.86 2.857-28.823 4.61-88.254 10.594-120 14.285-23.818 2.77-47.534 6.524-71.427 8.57-9.49.815-19.048 0-28.572 0h-11.427c-.953 0-2.33.794-2.857 0-3.202-4.8-5.223-23.42-5.715-25.713-4.5-21.01-9.95-41.812-14.284-62.857-2.337-11.348-3.527-22.908-5.715-34.286-.817-4.255-11.79-55.235-14.284-65.715-2.73-11.46-5.843-22.826-8.572-34.286-3.037-12.758-6.603-32.848-11.428-45.715-.473-1.26-2.255-1.652-2.857-2.857-.427-.852.672-2.184 0-2.857-.675-.673-2.185.674-2.86 0-.672-.673.303-1.953 0-2.856-.672-2.02-1.903-3.81-2.856-5.715-.952-1.905-1.58-4.01-2.857-5.715-1.616-2.155-4.51-3.305-5.714-5.714-.852-1.703 1.347-4.367 0-5.714-1.347-1.346-3.81 0-5.714 0h-14.287c-7.62.953-15.182 2.644-22.857 2.858-26.657.74-53.334 0-80 0h-77.143c-6.667 0-13.342.333-20 0-12.402-.62-24.796-1.535-37.143-2.858-14.33-1.535-28.59-3.676-42.857-5.714-5.735-.82-11.367-2.413-17.143-2.857-6.647-.51-13.333 0-20 0h-5.714c-.953 0-2.006.426-2.857 0-2.41-1.205-3.56-4.098-5.716-5.714-.573-.43-10.13-5.972-11.428-8.57-.426-.852.673-2.184 0-2.858-1.347-1.347-4.863 1.704-5.715 0-.85-1.703.853-4.01 0-5.714-.424-.852-2.182.673-2.856 0-.673-.674.426-2.005 0-2.857-.602-1.204-1.904-1.904-2.857-2.856-1.905-1.905-4.22-3.473-5.714-5.715-.528-.793.673-2.184 0-2.858-.084-.084-33.882 1.227-8.572-11.428 3.81-1.905 3.81 7.62 0 0z" fill="none" stroke="#000"/><path d="M694.286 232.362c-26.182 22.277-45.027 51.025-62.857 80-2.912 4.73-5.716 9.524-8.573 14.286-2.857 4.762-6.088 9.32-8.57 14.286-2.295 4.587-3.17 9.832-5.716 14.285-1.335 2.338-4.097 3.56-5.713 5.714-1.278 1.703-1.58 4.01-2.857 5.714-1.616 2.155-4.032 3.61-5.714 5.714-14.167 17.708.33.933-8.572 14.286-2.857 4.286-5.714 2.857-8.57 8.57-.9 1.797.897 9.634 0 11.43-.603 1.205-2.432 1.58-2.858 2.857-.044.13-.206 13.875 0 14.286.602 1.205 1.54 2.576 2.857 2.858 12.248 2.625 24.656 4.715 37.143 5.714 11.392.912 22.857 0 34.285 0h40c10.478 0 20.974-.653 31.43 0 4.847.303 9.437 2.588 14.286 2.857 12.362.686 24.762 0 37.143 0h62.855c.952 0 2.183.673 2.857 0 .673-.674 0-1.905 0-2.858 0-4.762.673-9.57 0-14.286-1.908-13.352-8.965-24.98-14.286-37.142-2.907-6.645-5.328-13.513-8.57-20-8.73-17.46-18.293-33.975-31.43-48.572-2.297-2.552-5.914-3.54-8.57-5.714-7.837-6.41-14.694-14.013-22.858-20-48.728-35.733 9.308 14.63-40-25.714-4.17-3.412-8.658-6.81-11.43-11.43-3.1-5.164-3.81-11.428-5.714-17.142z" fill="none" stroke="#000"/><path d="M953.81 890.505c-.716-3.536-5.156-24.43-9.87-46.43-4.71-22-11.275-54.14-14.586-71.427-11.423-59.644-31.155-137.42-38.447-151.546-12.847-24.89.274-22.74-138.764-22.74-103.99 0-129.633-.816-157.028-5-18.01-2.75-38.955-5-46.55-5-11.08 0-16.183-1.792-25.848-9.078-6.623-4.993-14.625-13.028-17.782-17.857-3.156-4.828-8.687-9.2-12.29-9.714-5.36-.765-5.927-1.686-3.12-5.07 4.542-5.47.787-8.92-5.376-4.937-2.888 1.866-4.554 6.028-4.1 10.243.865 8.03-14.823 46.483-26.658 65.34-16.65 26.534-48.946 67.82-71.238 91.072-12.806 13.357-26.947 30.714-31.425 38.572-4.48 7.857-9.488 16.042-11.133 18.19-4.502 5.875-10.22 23.707-10.268 32.023-.06 10.217-23.633 76.93-27.183 76.93-4.632 0-32.81-15.15-37.147-19.97-8.342-9.274-21.842-15.325-57.143-25.615-51.558-15.03-61.428-18.347-61.428-20.648 0-1.206 8.034-11.343 17.856-22.527 9.82-11.185 24.504-28.653 32.628-38.82 8.125-10.165 20.54-24.65 27.592-32.19 17.475-18.68 20.32-24.67 90.463-190.535 10.702-25.31 21.376-49.74 23.72-54.286 2.34-4.547 10-26.965 17.016-49.82 10.675-34.77 16.728-48.527 37.082-84.285 31.596-55.507 34.208-60.835 63.14-128.794 13.46-31.62 33.978-74.048 45.595-94.285 32.293-56.26 66.875-123.9 70.668-138.224 1.873-7.07 8.735-21.787 15.25-32.703 6.515-10.915 18.274-32.772 26.13-48.57l14.287-28.727 35.714-1.84c31.177-1.61 161.5-19.174 179.287-24.165 3.536-.99 6.43-1.123 6.43-.292 0 .83 1.837 11.12 4.084 22.864 4.366 22.813 17.58 51.866 37.298 82.006 6.683 10.214 14.788 25.643 18.013 34.286 3.225 8.642 10.343 25.357 15.817 37.142 5.474 11.786 11.493 27.215 13.375 34.286 1.882 7.072 7.282 20.572 12 30 4.718 9.43 10.977 28.694 13.91 42.812 6.146 29.588 14.178 46.033 46.93 96.08 12.97 19.82 27.03 44.893 31.246 55.716 13.65 35.044 19.323 48.035 26.064 59.678 12.697 21.93 44.712 103.07 51.548 130.648 3.79 15.286 9.366 34.57 12.393 42.858 3.788 10.37 6.534 29.76 8.807 62.208 7.927 113.133 15.968 178.91 22.893 187.254 1.532 1.845 3.918 9.004 5.304 15.908 1.385 6.904 4.742 20.267 7.46 29.695 2.717 9.428 5.907 24.214 7.087 32.856 1.18 8.643 3.043 20.985 4.138 27.427l1.99 11.713-25.178 3.287c-74.61 9.74-174.415 20.43-190.72 20.43-17.035 0-18.747-.55-19.935-6.428zM837.856 423.93c0-19.413-26.38-78.745-46.286-104.1-7.91-10.08-47.536-41.98-58.83-47.364-13.893-6.624-29.483-21.302-33.932-31.948-3.742-8.958-4.196-9.176-10.507-5.04-14.276 9.354-58.603 71.352-75.596 105.735-3.885 7.86-11.387 19.65-16.67 26.2-5.283 6.552-9.605 13.238-9.605 14.86 0 1.62-2.015 4.075-4.476 5.452-2.462 1.378-5.645 7.55-7.075 13.714-4.398 18.956-3.48 23.893 5.12 27.522 7.843 3.31 90.36 6.334 202.857 7.434l55 .538V423.93z" fill="#999"/></g></svg>