<?xml version="1.0" encoding="UTF-8" standalone="no"?>
<!-- Created with Inkscape (http://www.inkscape.org/) -->

<svg
   xmlns:dc="http://purl.org/dc/elements/1.1/"
   xmlns:cc="http://creativecommons.org/ns#"
   xmlns:rdf="http://www.w3.org/1999/02/22-rdf-syntax-ns#"
   xmlns:svg="http://www.w3.org/2000/svg"
   xmlns="http://www.w3.org/2000/svg"
   xmlns:sodipodi="http://sodipodi.sourceforge.net/DTD/sodipodi-0.dtd"
   xmlns:inkscape="http://www.inkscape.org/namespaces/inkscape"
   width="400mm"
   height="400mm"
   viewBox="0 0 1417.3228 1417.3228"
   id="svg2"
   version="1.1"
   inkscape:version="0.91 r13725"
   sodipodi:docname="logo.svg">
  <defs
     id="defs4" />
  <sodipodi:namedview
     id="base"
     pagecolor="#ffffff"
     bordercolor="#666666"
     borderopacity="1.0"
     inkscape:pageopacity="0.0"
     inkscape:pageshadow="2"
     inkscape:zoom="0.35"
     inkscape:cx="375"
     inkscape:cy="520"
     inkscape:document-units="px"
     inkscape:current-layer="layer1"
     showgrid="false"
     inkscape:window-width="1920"
     inkscape:window-height="1017"
     inkscape:window-x="-8"
     inkscape:window-y="-8"
     inkscape:window-maximized="1" />
  <metadata
     id="metadata7">
    <rdf:RDF>
      <cc:Work
         rdf:about="">
        <dc:format>image/svg+xml</dc:format>
        <dc:type
           rdf:resource="http://purl.org/dc/dcmitype/StillImage" />
        <dc:title />
      </cc:Work>
    </rdf:RDF>
  </metadata>
  <g
     fill="black"
     inkscape:label="Layer 1"
     inkscape:groupmode="layer"
     id="layer1"
     transform="translate(0,364.96063)">
    <flowRoot
       xml:space="preserve"
       id="flowRoot3376"
       style="font-style:normal;font-weight:normal;font-size:40px;line-height:125%;font-family:sans-serif;letter-spacing:0px;word-spacing:0px;fill:#000000;fill-opacity:1;stroke:none;stroke-width:1px;stroke-linecap:butt;stroke-linejoin:miter;stroke-opacity:1"
       transform="translate(0,-364.96063)"><flowRegion
         id="flowRegion3378"><rect
           id="rect3380"
           width="1114.2858"
           height="1134.2858"
           x="148.57143"
           y="137.32288" /></flowRegion><flowPara
         id="flowPara3382"
         style="font-style:normal;font-variant:normal;font-weight:normal;font-stretch:normal;font-family:'Segoe Print';-inkscape-font-specification:'Segoe Print'" /></flowRoot>    <flowRoot
       xml:space="preserve"
       id="flowRoot3392"
       style="fill:black;stroke:none;stroke-opacity:1;stroke-width:1px;stroke-linejoin:miter;stroke-linecap:butt;fill-opacity:1;font-family:sans-serif;font-style:normal;font-weight:normal;font-size:40px;line-height:125%;letter-spacing:0px;word-spacing:0px"><flowRegion
         id="flowRegion3394"><rect
           id="rect3396"
           width="262.85715"
           height="165.71428"
           x="905.71429"
           y="737.32288" /></flowRegion><flowPara
         id="flowPara3398" /></flowRoot>    <path
       style="fill:none;fill-rule:evenodd;stroke:#000000;stroke-width:1px;stroke-linecap:butt;stroke-linejoin:miter;stroke-opacity:1"
       d="m 488.57143,540.93363 c -8.53438,25.40109 -18.08832,50.94027 -31.42857,74.28572 -6.01964,10.53437 -31.14454,44.38322 -34.28572,48.57142 -6.51529,8.6871 -12.78579,17.5983 -20,25.7143 -28.396,31.9455 -20.38033,16.4944 -42.85714,45.7143 -3.80952,5.7143 -7.61905,11.4285 -11.42857,17.1428 -0.95238,2.8572 -1.30764,5.989 -2.85714,8.5715 -4.87917,8.1319 -6.36031,2.584 -8.57143,11.4285 -0.46198,1.8479 0,3.8096 0,5.7143 0,0.9524 0.42591,2.0053 0,2.8572 -4.8095,9.619 -2.82754,-8.7787 -5.71429,11.4285 -0.53875,3.7713 0.53875,7.6574 0,11.4286 -0.42592,2.9814 -1.90476,5.7143 -2.85714,8.5714 -0.95238,2.8572 -1.90476,5.7143 -2.85714,8.5715 -7.33614,22.0084 -3.47726,11.5502 -11.42858,31.4285 -1.90476,4.7619 -3.69398,9.5717 -5.71428,14.2857 -0.83889,1.9574 -2.18371,3.694 -2.85714,5.7143 -0.30117,0.9035 0.67343,2.1837 0,2.8572 -0.67344,0.6734 -1.90477,0 -2.85715,0 -0.95238,0 -1.95363,0.3011 -2.85714,0 -2.02031,-0.6735 -3.75688,-2.0183 -5.71429,-2.8572 -6.92915,-2.9696 -19.0918,-7.0136 -25.71428,-11.4285 -3.19458,-2.1298 -8.31876,-8.3188 -11.42857,-11.4286 -0.95238,-0.9524 -1.73648,-2.11 -2.85715,-2.8572 -3.80021,-2.5334 -19.39433,-8.3695 -20,-8.5714 -6.57763,-2.1925 -13.38217,-3.6462 -20,-5.7143 -8.6238,-2.6949 -17.02684,-6.0893 -25.71428,-8.5714 -25.1073,-7.1735 -3.58219,2.5671 -31.42857,-8.5714 -12.28041,-4.9122 -11.42857,-1.7297 -11.42857,-8.5715 0,-0.9523 -0.55356,-2.0821 0,-2.8571 7.72752,-10.8185 34.73618,-39.4635 40,-45.7143 6.99455,-8.306 13.08422,-17.3425 20,-25.7143 11.18429,-13.5389 24.97838,-25.1082 34.28571,-40 5.25209,-8.4033 42.34826,-97.9465 45.71429,-105.71425 4.57553,-10.55892 9.52381,-20.95238 14.28571,-31.42857 9.52381,-22.85715 18.81724,-45.81165 28.57143,-68.57143 4.53309,-10.57721 10.18904,-20.6748 14.28571,-31.42857 3.53972,-9.29175 5.57724,-19.08982 8.57143,-28.57143 2.72075,-8.6157 5.87649,-17.09048 8.57143,-25.71429 2.06807,-6.61782 2.86905,-13.67725 5.71429,-20 8.6147,-19.14377 33.40826,-59.35674 42.85714,-77.14285 24.97452,-47.01086 23.63426,-46.97567 42.85714,-91.42858 9.48046,-21.92355 17.88947,-44.35036 28.57143,-65.71428 10.30158,-20.60315 23.18471,-39.81635 34.28571,-60 9.85451,-17.91729 18.97792,-36.22734 28.57143,-54.28572 6.59714,-12.41814 13.7114,-24.56565 20,-37.14285 6.77922,-13.55844 6.34677,-19.0403 11.42857,-34.28572 0.67344,-2.0203 2.18371,-3.69398 2.85715,-5.71428 0.30117,-0.90351 -0.42592,-2.00531 0,-2.85715 0.60234,-1.20467 2.04902,-1.77964 2.85714,-2.85714 2.06032,-2.74708 4.01061,-5.59 5.71429,-8.57143 2.11314,-3.698 3.52295,-7.77635 5.71428,-11.42857 3.53341,-5.88902 8.17259,-11.09603 11.42857,-17.14286 3.4387,-6.38616 5.53195,-13.41446 8.57143,-20 2.67727,-5.80074 5.71429,-11.42857 8.57143,-17.14285 0.13033,-0.26066 4.65887,-12.32944 8.57143,-14.28572 0.85183,-0.42591 1.90476,0 2.85714,0 16.19048,0 32.40333,0.85096 48.57143,0 5.7851,-0.30448 11.40797,-2.03787 17.14286,-2.85714 74.05545,-10.57935 43.2908,-5.46107 102.85714,-14.28571 12.39137,-1.83576 24.8308,-3.40578 37.14286,-5.71429 2.03717,-0.38197 10.09297,-4.19274 11.42857,-2.85714 4.39084,4.39084 5.38256,21.30907 5.71428,22.85714 1.64555,7.67921 2.91847,15.51811 5.71429,22.85714 4.85436,12.7427 10.52062,25.22283 17.14286,37.14286 7.69782,13.85607 18.43207,25.92106 25.71428,40 7.06877,13.66628 11.00799,28.74693 17.14286,42.85714 3.39649,7.81193 8.18521,14.98041 11.42857,22.85715 16.66667,40.47619 1.5873,11.11111 14.28572,42.85714 1.58181,3.95455 4.13246,7.47402 5.71428,11.42857 0.35371,0.88426 -0.42592,2.00531 0,2.85714 0.60234,1.20468 1.90476,1.90477 2.85714,2.85715 1.90477,3.80952 4.21879,7.44058 5.71429,11.42857 1.37878,3.67674 1.90476,7.61905 2.85714,11.42857 0.95238,3.80952 2.03437,7.58897 2.85715,11.42857 2.03503,9.49683 2.17508,19.52681 5.71428,28.57143 8.37045,21.39113 33.97613,58.80196 45.71433,77.14286 6.6937,10.45893 14.6014,20.24594 20,31.42857 7.9965,16.56432 12.5756,34.6 20,51.42857 6.8767,15.58719 15.6827,30.26184 22.8571,45.71428 5.2138,11.22964 9.4812,22.875 14.2857,34.28572 8.8063,20.91503 15.0948,33.85571 22.8572,57.14286 1.5356,4.607 1.7651,9.55386 2.8571,14.28571 1.7659,7.65242 3.4983,15.32273 5.7143,22.85714 2.5494,8.66795 5.7143,17.14286 8.5714,25.71429 1.9048,5.71428 4.8625,11.18001 5.7143,17.14286 1.0775,7.54247 -0.7581,15.2759 0,22.85714 0.2119,2.11902 2.6452,3.59526 2.8571,5.71428 2.2223,22.22223 -1.6666,20 0,40 0.4811,5.7731 1.9048,11.42858 2.8572,17.14286 0.9524,8.57143 2.3192,17.10691 2.8571,25.71431 0,62.187 -1.096,-18.20107 2.8572,37.1428 0.5428,7.5997 -0.7582,15.2759 0,22.8572 0.2119,2.119 2.3406,3.6483 2.8571,5.7143 3.9766,15.9062 4.0524,32.7549 8.5714,48.5714 1.1701,4.0953 4.3675,7.388 5.7143,11.4286 0.3012,0.9035 -0.3011,1.9536 0,2.8571 0.6735,2.0203 2.3407,3.6483 2.8572,5.7143 0.9239,3.6958 -1.7037,8.0212 0,11.4286 0.4259,0.8518 2.4312,-0.8519 2.8571,0 0.8518,1.7036 -0.3735,3.8465 0,5.7142 0.5907,2.9533 2.1267,5.6497 2.8572,8.5715 1.1778,4.7112 1.5793,9.6006 2.8571,14.2857 1.5849,5.8111 4.6368,11.2166 5.7143,17.1428 0.8518,4.6851 -0.5907,9.5606 0,14.2858 0.3735,2.9884 2.4312,5.59 2.8571,8.5714 0.5388,3.7712 -0.6263,7.6709 0,11.4286 0.3501,2.1006 2.1837,3.6939 2.8572,5.7142 0.3011,0.9036 0,1.9048 0,2.8572 0,0.9524 0.4259,2.0053 0,2.8571 -0.6024,1.2047 -1.5272,2.6444 -2.8572,2.8572 -28.8243,4.6119 -88.2551,10.5944 -120,14.2857 -23.8198,2.7697 -47.5358,6.5235 -71.42854,8.5714 -9.48902,0.8134 -19.04762,0 -28.57143,0 -7.52941,0 -3.89916,0 -11.42857,0 -0.95238,0 -2.32886,0.7924 -2.85715,0 -3.20173,-4.8026 -5.223,-23.4216 -5.71428,-25.7143 -4.50209,-21.0097 -9.95286,-41.8118 -14.28572,-62.8571 -2.33639,-11.3482 -3.52626,-22.908 -5.71428,-34.2857 -0.81815,-4.2544 -11.79053,-55.2345 -14.28572,-65.7143 -2.72856,-11.46 -5.84286,-22.8258 -8.57142,-34.2857 -3.03751,-12.7575 -6.60346,-32.8473 -11.42858,-45.71431 -0.47291,-1.26111 -2.2548,-1.65246 -2.85714,-2.85714 -0.42592,-0.85184 0.67344,-2.18371 0,-2.85714 -0.67343,-0.67344 -2.18371,0.67343 -2.85714,0 -0.67344,-0.67344 0.30117,-1.95364 0,-2.85715 -0.67344,-2.0203 -1.90476,-3.80952 -2.85714,-5.71428 -0.95239,-1.90476 -1.57939,-4.01062 -2.85715,-5.71429 -1.61624,-2.15499 -4.50961,-3.30493 -5.71428,-5.71428 -0.85184,-1.70367 1.34687,-4.36742 0,-5.71429 -1.34687,-1.34687 -3.80953,0 -5.71429,0 -4.7619,0 -9.52381,0 -14.28571,0 -7.61905,0.95238 -15.18177,2.64394 -22.85715,2.85714 -26.65638,0.74046 -53.33333,0 -80,0 -18.09523,0 -36.19047,0 -54.28571,0 -7.61905,0 -15.2381,0 -22.85714,0 -6.66667,0 -13.34165,0.33292 -20,0 -12.40204,-0.6201 -24.796,-1.53426 -37.14286,-2.85714 -14.33012,-1.53537 -28.58985,-3.6761 -42.85714,-5.71429 -5.73489,-0.81926 -11.36682,-2.41283 -17.14286,-2.85714 -6.64703,-0.51131 -13.33333,0 -20,0 -1.90476,0 -3.80952,0 -5.71429,0 -0.95238,0 -2.0053,0.42592 -2.85714,0 -2.40935,-1.20468 -3.55929,-4.09804 -5.71428,-5.71428 -0.57328,-0.42996 -10.12918,-5.97264 -11.42858,-8.57143 -0.42591,-0.85184 0.67344,-2.18371 0,-2.85715 -1.34687,-1.34687 -4.86245,1.70368 -5.71428,0 -0.85184,-1.70367 0.85183,-4.01061 0,-5.71428 -0.42592,-0.85184 -2.18371,0.67343 -2.85714,0 -0.67344,-0.67344 0.42591,-2.00531 0,-2.85714 -0.60234,-1.20468 -1.90477,-1.90477 -2.85715,-2.85715 -1.90476,-1.90476 -4.22006,-3.47296 -5.71428,-5.71428 -0.52829,-0.79243 0.67343,-2.18371 0,-2.85715 -0.0838,-0.0838 -33.88167,1.22655 -8.57143,-11.42857 3.80952,-1.90476 3.80952,7.61905 0,0 z"
       id="path3345"
       inkscape:connector-curvature="0" />
    <path
       style="fill:none;fill-rule:evenodd;stroke:#000000;stroke-width:1px;stroke-linecap:butt;stroke-linejoin:miter;stroke-opacity:1"
       d="m 694.28571,232.3622 c -26.18202,22.27701 -45.02626,51.02483 -62.85714,80 -2.91046,4.72951 -5.71428,9.52381 -8.57143,14.28572 -2.85714,4.7619 -6.08792,9.3187 -8.57143,14.28571 -2.29363,4.58728 -3.16972,9.83273 -5.71428,14.28572 -1.33647,2.33882 -4.09804,3.55929 -5.71429,5.71428 -1.27775,1.70367 -1.57939,4.01062 -2.85714,5.71429 -1.61624,2.15499 -4.03152,3.61083 -5.71429,5.71428 -14.16639,17.70799 0.33056,0.93274 -8.57142,14.28572 -2.85715,4.28571 -5.71429,2.85714 -8.57143,8.57143 -0.89789,1.79578 0.89789,9.63279 0,11.42857 -0.60234,1.20468 -2.43123,1.57939 -2.85715,2.85714 -0.0433,0.12979 -0.20535,13.87502 0,14.28572 0.60234,1.20467 1.54017,2.57493 2.85715,2.85714 12.24855,2.62469 24.65613,4.71535 37.14285,5.71428 11.39218,0.91138 22.85715,0 34.28572,0 13.33333,0 26.66667,0 40,0 10.47619,0 20.97278,-0.65348 31.42857,0 4.84675,0.30293 9.43698,2.58777 14.28571,2.85715 12.36189,0.68677 24.76191,0 37.14286,0 10.47619,0 20.95238,0 31.42857,0 9.52381,0 19.04762,0 28.57143,0 0.95238,0 1.90476,0 2.85714,0 0.95239,0 2.18371,0.67343 2.85715,0 0.67343,-0.67344 0,-1.90476 0,-2.85715 0,-4.7619 0.67343,-9.57166 0,-14.28571 -1.90752,-13.35264 -8.96487,-24.98092 -14.28572,-37.14286 -2.90718,-6.64499 -5.32773,-13.51261 -8.57143,-20 -8.72923,-17.45847 -18.29178,-33.975 -31.42857,-48.57143 -2.29713,-2.55236 -5.91377,-3.53983 -8.57143,-5.71428 -7.8355,-6.41087 -14.69314,-14.01307 -22.85714,-20 -48.72703,-35.73315 9.30975,14.63005 -40,-25.71429 -4.16968,-3.41155 -8.65673,-6.80884 -11.42857,-11.42857 -3.09901,-5.16501 -3.80952,-11.42857 -5.71429,-17.14286 z"
       id="path3347"
       inkscape:connector-curvature="0" />
    <path
       style="fill:#999999"
       d="m 953.80897,1255.4657 c -0.71494,-3.5357 -5.15543,-24.4286 -9.86777,-46.4286 -4.71234,-22 -11.2766,-54.1428 -14.58729,-71.4286 -11.42334,-59.6438 -31.15471,-137.4197 -38.44642,-151.54587 -12.84786,-24.89 0.27325,-22.7398 -138.76463,-22.7398 -103.98929,0 -129.63269,-0.81651 -157.02812,-5 -18.00831,-2.75 -38.95523,-5 -46.54868,-5 -11.08,0 -16.18432,-1.79262 -25.84883,-9.078 -6.6234,-4.99291 -14.62532,-13.02862 -17.782,-17.85714 -3.15672,-4.82854 -8.68712,-9.19983 -12.28983,-9.714 -5.36074,-0.76508 -5.92726,-1.68571 -3.11931,-5.06906 4.54131,-5.47194 0.78611,-8.92 -5.3774,-4.9376 -2.88712,1.86543 -4.5524,6.0272 -4.09858,10.24298 0.86449,8.03105 -14.82357,46.48408 -26.65811,65.34171 -16.6514,26.53298 -48.94578,67.81828 -71.23813,91.07108 -12.8054,13.3572 -26.94642,30.7143 -31.42448,38.5715 -4.47807,7.8571 -9.48764,16.0422 -11.1324,18.189 -4.50196,5.8763 -10.21963,23.7086 -10.26826,32.0248 -0.0597,10.2169 -23.63189,76.929 -27.1822,76.929 -4.63156,0 -32.80861,-15.1482 -37.14653,-19.9703 -8.34216,-9.2732 -21.84203,-15.3245 -57.14286,-25.6143 -51.55801,-15.0286 -61.42857,-18.3464 -61.42857,-20.648 0,-1.2056 8.03572,-11.3429 17.85714,-22.5273 9.82143,-11.1843 24.50437,-28.6527 32.62875,-38.8186 8.12438,-10.1659 20.5408,-24.6511 27.59204,-32.1895 17.47499,-18.6822 20.31827,-24.6708 90.46207,-190.53684 10.70368,-25.31051 21.37784,-49.73908 23.72036,-54.28571 2.34252,-4.5466 10.00015,-26.96514 17.01694,-49.81897 10.67526,-34.76946 16.72845,-48.52806 37.08204,-84.28572 31.59592,-55.50837 34.2078,-60.83623 63.139,-128.79474 13.46103,-31.61949 33.97915,-74.04806 45.59583,-94.28571 32.2936,-56.25931 66.87555,-123.90046 70.668,-138.22429 1.87226,-7.07143 8.73457,-21.7879 15.24955,-32.70327 6.515,-10.91536 18.274,-32.77251 26.13114,-48.57142 l 14.28571,-28.72531 35.71429,-1.84197 c 31.1758,-1.6079 161.49951,-19.17242 179.28571,-24.16342 3.53572,-0.99216 6.42857,-1.12422 6.42857,-0.29347 0,0.83076 1.83858,11.11981 4.08572,22.86455 4.36488,22.81328 17.57823,51.866 37.2966,82.00574 6.68251,10.21428 14.78826,25.64286 18.01271,34.28571 3.22449,8.64286 10.34177,25.35715 15.81617,37.14286 5.47443,11.78571 11.49323,27.21429 13.37515,34.28571 1.88191,7.07143 7.28174,20.57143 11.99965,30 4.71789,9.42858 10.9774,28.69378 13.91,42.81158 6.14612,29.58774 14.17869,46.03305 46.93019,96.0816 12.97,19.8198 27.0308,44.89122 31.2461,55.71428 13.6491,35.04466 19.3226,48.0354 26.0638,59.67826 12.6974,21.9302 44.7123,103.071 51.5485,130.64854 3.7891,15.28526 9.366,34.57097 12.393,42.85714 3.788,10.36938 6.5334,29.76138 8.8068,62.2086 7.9266,113.13257 15.9684,178.90967 22.8933,187.25367 1.5316,1.8454 3.918,9.004 5.3033,15.908 1.3852,6.9039 4.7421,20.2669 7.4597,29.6955 2.7177,9.4285 5.9072,24.2143 7.0879,32.8571 1.1806,8.6429 3.0425,20.985 4.1375,27.427 l 1.9908,11.7127 -25.1784,3.2867 c -74.6089,9.739 -174.41569,20.4308 -190.71923,20.4308 -17.0364,0 -18.74768,-0.5519 -19.936,-6.4286 z M 837.85714,788.89143 c 0,-19.41425 -26.38023,-78.74537 -46.28663,-104.10214 -7.91131,-10.0774 -47.53622,-41.97883 -58.82925,-47.36254 -13.89423,-6.62374 -29.48469,-21.30249 -33.93283,-31.9484 -3.74283,-8.95783 -4.1968,-9.17563 -10.50712,-5.04097 -14.27771,9.35514 -58.60422,71.35325 -75.59751,105.73588 -3.88514,7.86083 -11.38646,19.65166 -16.66957,26.20186 -5.28312,6.55017 -9.60566,13.23629 -9.60566,14.85803 0,1.62171 -2.01374,4.07554 -4.475,5.45294 -2.46126,1.3774 -5.64488,7.54843 -7.07471,13.7134 -4.39663,18.95703 -3.47795,23.89452 5.12114,27.52357 7.84283,3.30989 90.36054,6.33366 202.85714,7.43349 l 55,0.53771 0,-13.00283 z"
       id="path3343"
       inkscape:connector-curvature="0"
       transform="translate(0,-364.96063)" />
  </g>
</svg>
